<svg width="74" height="74" viewBox="0 0 74 74" fill="none" xmlns="http://www.w3.org/2000/svg">
<path d="M44.8627 6.16666H29.1377C23.5877 6.16666 22.3543 8.94169 21.6452 12.3642L19.1168 24.4508H54.8835L52.3552 12.3642C51.646 8.94169 50.4127 6.16666 44.8627 6.16666Z" stroke="white" stroke-width="4" stroke-linecap="round" stroke-linejoin="round"/>
<path d="M59.3234 44.1533C59.57 46.7741 57.4733 49.025 54.7908 49.025H50.5975C48.1925 49.025 47.8533 48.0075 47.4217 46.7125L46.9592 45.3865C46.3425 43.5674 45.9417 42.3341 42.7042 42.3341H31.265C28.0583 42.3341 27.565 43.7215 27.01 45.3865L26.5475 46.7125C26.1158 47.9767 25.7767 49.025 23.3717 49.025H19.1783C16.4958 49.025 14.3992 46.7741 14.6458 44.1533L15.91 30.525C16.2183 27.1642 16.8658 24.4199 22.7242 24.4199H51.245C57.1033 24.4199 57.7508 27.1642 58.0592 30.525L59.3234 44.1533Z" stroke="white" stroke-width="4" stroke-linecap="round" stroke-linejoin="round"/>
<path d="M19.1168 17.7292H16.866" stroke="white" stroke-width="4" stroke-linecap="round" stroke-linejoin="round"/>
<path d="M57.1341 17.7292H54.8833" stroke="white" stroke-width="4" stroke-linecap="round" stroke-linejoin="round"/>
<path d="M23.5874 33.3926H30.2783" stroke="white" stroke-width="4" stroke-linecap="round" stroke-linejoin="round"/>
<path d="M43.7217 33.3926H50.4126" stroke="white" stroke-width="4" stroke-linecap="round" stroke-linejoin="round"/>
<path d="M36.9999 52.4167V55.5" stroke="white" stroke-width="4" stroke-linecap="round" stroke-linejoin="round"/>
<path d="M36.9999 64.75V67.8333" stroke="white" stroke-width="4" stroke-linecap="round" stroke-linejoin="round"/>
<path d="M9.24984 55.5L6.1665 67.8333" stroke="white" stroke-width="4" stroke-linecap="round" stroke-linejoin="round"/>
<path d="M64.7499 55.5L67.8332 67.8333" stroke="white" stroke-width="4" stroke-linecap="round" stroke-linejoin="round"/>
</svg>
