<svg width="53" height="53" viewBox="0 0 53 53" fill="none" xmlns="http://www.w3.org/2000/svg">
<path d="M40.0633 30.326C39.1524 31.2152 38.632 32.4947 38.7621 33.8609C38.9573 36.203 41.1042 37.9162 43.4463 37.9162H47.5667V40.4969C47.5667 44.986 43.9017 48.651 39.4127 48.651H14.5168C10.0278 48.651 6.36279 44.986 6.36279 40.4969V25.9021C6.36279 21.413 10.0278 17.748 14.5168 17.748H39.4127C43.9017 17.748 47.5667 21.413 47.5667 25.9021V29.0249H43.1861C41.9717 29.0249 40.8657 29.502 40.0633 30.326Z" stroke="#770AA6" stroke-width="3" stroke-linecap="round" stroke-linejoin="round"/>
<path d="M6.36279 27.8538V17.9433C6.36279 15.3626 7.94589 13.0638 10.3531 12.153L27.572 5.64708C30.2611 4.62782 33.1453 6.62302 33.1453 9.5073V17.7481" stroke="#770AA6" stroke-width="3" stroke-linecap="round" stroke-linejoin="round"/>
<path d="M49.8628 31.2372V35.7047C49.8628 36.8975 48.9086 37.8733 47.6942 37.9166H43.4436C41.1015 37.9166 38.9546 36.2034 38.7594 33.8613C38.6293 32.4951 39.1498 31.2156 40.0606 30.3264C40.863 29.5024 41.969 29.0253 43.1834 29.0253H47.6942C48.9086 29.0687 49.8628 30.0445 49.8628 31.2372Z" stroke="#770AA6" stroke-width="3" stroke-linecap="round" stroke-linejoin="round"/>
<path d="M16.1216 26.9647H31.302" stroke="#770AA6" stroke-width="3" stroke-linecap="round" stroke-linejoin="round"/>
</svg>
