<svg width="26" height="28" viewBox="0 0 26 28" fill="none" xmlns="http://www.w3.org/2000/svg">
<path d="M23.8334 16.2507V3.17489C23.8334 1.87489 22.7717 0.910724 21.4826 1.01906H21.4176C19.1426 1.21406 15.6867 2.37322 13.7584 3.58656L13.5742 3.70572C13.2601 3.90072 12.7401 3.90072 12.4259 3.70572L12.1551 3.54322C10.2267 2.34072 6.78175 1.19239 4.50675 1.00822C3.21758 0.89989 2.16675 1.87489 2.16675 3.16406V16.2507C2.16675 17.2907 3.01175 18.2657 4.05175 18.3957L4.36591 18.4391C6.71675 18.7532 10.3459 19.9449 12.4259 21.0824L12.4692 21.1041C12.7617 21.2666 13.2276 21.2666 13.5092 21.1041C15.5892 19.9557 19.2292 18.7532 21.5909 18.4391L21.9484 18.3957C22.9884 18.2657 23.8334 17.2907 23.8334 16.2507Z" stroke="white" stroke-width="1.625" stroke-linecap="round" stroke-linejoin="round"/>
<path d="M13 7.94751V24.1975" stroke="white" stroke-width="1.625" stroke-linecap="round" stroke-linejoin="round"/>
<path d="M8.39575 11.1975H5.95825" stroke="white" stroke-width="1.625" stroke-linecap="round" stroke-linejoin="round"/>
<path d="M9.20825 14.4475H5.95825" stroke="white" stroke-width="1.625" stroke-linecap="round" stroke-linejoin="round"/>
</svg>
