<svg width="71" height="71" viewBox="0 0 71 71" fill="none" xmlns="http://www.w3.org/2000/svg">
<g filter="url(#filter0_d_765_2)">
<circle cx="35.5" cy="31.5" r="31.5" fill="url(#paint0_radial_765_2)"/>
<circle cx="35.5" cy="31.5" r="29" stroke="#24252D" stroke-width="5"/>
</g>
<path d="M44 27V37C44 40 42.5 42 39 42H31C27.5 42 26 40 26 37V27C26 24 27.5 22 31 22H39C42.5 22 44 24 44 27Z" stroke="white" stroke-width="1.5" stroke-miterlimit="10" stroke-linecap="round" stroke-linejoin="round"/>
<path d="M37.5 24.5V26.5C37.5 27.6 38.4 28.5 39.5 28.5H41.5" stroke="white" stroke-width="1.5" stroke-miterlimit="10" stroke-linecap="round" stroke-linejoin="round"/>
<path d="M31 33H35" stroke="white" stroke-width="1.5" stroke-miterlimit="10" stroke-linecap="round" stroke-linejoin="round"/>
<path d="M31 37H39" stroke="white" stroke-width="1.5" stroke-miterlimit="10" stroke-linecap="round" stroke-linejoin="round"/>
<defs>
<filter id="filter0_d_765_2" x="0" y="0" width="71" height="71" filterUnits="userSpaceOnUse" color-interpolation-filters="sRGB">
<feFlood flood-opacity="0" result="BackgroundImageFix"/>
<feColorMatrix in="SourceAlpha" type="matrix" values="0 0 0 0 0 0 0 0 0 0 0 0 0 0 0 0 0 0 127 0" result="hardAlpha"/>
<feOffset dy="4"/>
<feGaussianBlur stdDeviation="2"/>
<feComposite in2="hardAlpha" operator="out"/>
<feColorMatrix type="matrix" values="0 0 0 0 0 0 0 0 0 0 0 0 0 0 0 0 0 0 0.25 0"/>
<feBlend mode="normal" in2="BackgroundImageFix" result="effect1_dropShadow_765_2"/>
<feBlend mode="normal" in="SourceGraphic" in2="effect1_dropShadow_765_2" result="shape"/>
</filter>
<radialGradient id="paint0_radial_765_2" cx="0" cy="0" r="1" gradientUnits="userSpaceOnUse" gradientTransform="translate(35.5 31.5) rotate(90) scale(31.5)">
<stop stop-color="#474A51"/>
<stop offset="1" stop-color="#0C0F1C"/>
</radialGradient>
</defs>
</svg>
