<svg width="30" height="30" viewBox="0 0 30 30" fill="none" xmlns="http://www.w3.org/2000/svg">
<path d="M19.3875 3.5376H10.6125C7.50003 3.5376 6.81253 5.0876 6.41253 6.9876L5.00003 13.7501H25L23.5875 6.9876C23.1875 5.0876 22.5 3.5376 19.3875 3.5376Z" stroke="#505CC6" stroke-width="1.5" stroke-linecap="round" stroke-linejoin="round"/>
<path d="M27.4874 24.775C27.6249 26.2375 26.4499 27.5 24.9499 27.5H22.5999C21.2499 27.5 21.0624 26.925 20.8249 26.2125L20.5749 25.4625C20.2249 24.4375 19.9999 23.75 18.1999 23.75H11.7999C9.99991 23.75 9.73741 24.525 9.42491 25.4625L9.17491 26.2125C8.93741 26.925 8.74991 27.5 7.39991 27.5H5.04991C3.54991 27.5 2.37491 26.2375 2.51241 24.775L3.21241 17.1625C3.38741 15.2875 3.74991 13.75 7.02491 13.75H22.9749C26.2499 13.75 26.6124 15.2875 26.7874 17.1625L27.4874 24.775Z" stroke="#505CC6" stroke-width="1.5" stroke-linecap="round" stroke-linejoin="round"/>
<path d="M5 10H3.75" stroke="#505CC6" stroke-width="1.5" stroke-linecap="round" stroke-linejoin="round"/>
<path d="M26.25 10H25" stroke="#505CC6" stroke-width="1.5" stroke-linecap="round" stroke-linejoin="round"/>
<path d="M15 3.75V6.25" stroke="#505CC6" stroke-width="1.5" stroke-linecap="round" stroke-linejoin="round"/>
<path d="M13.125 6.25H16.875" stroke="#505CC6" stroke-width="1.5" stroke-linecap="round" stroke-linejoin="round"/>
<path d="M7.5 18.75H11.25" stroke="#505CC6" stroke-width="1.5" stroke-linecap="round" stroke-linejoin="round"/>
<path d="M18.75 18.75H22.5" stroke="#505CC6" stroke-width="1.5" stroke-linecap="round" stroke-linejoin="round"/>
</svg>
