<svg width="73" height="75" viewBox="0 0 73 75" fill="none" xmlns="http://www.w3.org/2000/svg">
<path d="M24.219 38.3674H45.4107" stroke="white" stroke-width="4" stroke-miterlimit="10" stroke-linecap="round" stroke-linejoin="round"/>
<path d="M24.219 50.6243H37.4789" stroke="white" stroke-width="4" stroke-miterlimit="10" stroke-linecap="round" stroke-linejoin="round"/>
<path d="M30.2738 19.3696H42.3833C48.4381 19.3696 48.4381 16.3054 48.4381 13.2412C48.4381 7.11279 45.4107 7.11279 42.3833 7.11279H30.2738C27.2464 7.11279 24.219 7.11279 24.219 13.2412C24.219 19.3696 27.2464 19.3696 30.2738 19.3696Z" stroke="white" stroke-width="4" stroke-miterlimit="10" stroke-linecap="round" stroke-linejoin="round"/>
<path d="M48.438 13.3025C58.5192 13.854 63.575 17.623 63.575 31.6264V50.0115C63.575 62.2683 60.5476 68.3967 45.4106 68.3967H27.2463C12.1094 68.3967 9.08203 62.2683 9.08203 50.0115V31.6264C9.08203 17.6536 14.1378 13.854 24.219 13.3025" stroke="white" stroke-width="4" stroke-miterlimit="10" stroke-linecap="round" stroke-linejoin="round"/>
</svg>
