<svg width="32" height="32" viewBox="0 0 32 32" fill="none" xmlns="http://www.w3.org/2000/svg">
<path d="M26.6667 12.7999C26.6667 7.46659 24.5333 5.33325 19.2 5.33325H12.8C7.46668 5.33325 5.33334 7.46659 5.33334 12.7999V19.1999C5.33334 24.5333 7.46668 26.6666 12.8 26.6666" stroke="#AC50C6" stroke-width="1.5" stroke-linecap="round" stroke-linejoin="round"/>
<path d="M21.8 10.6666C21.0667 9.73325 19.84 9.33325 18 9.33325H14C10.6667 9.33325 9.33334 10.6666 9.33334 13.9999V17.9999C9.33334 19.8399 9.73334 21.0666 10.6533 21.7999" stroke="#AC50C6" stroke-width="1.5" stroke-linecap="round" stroke-linejoin="round"/>
<path d="M10.68 5.33341V2.66675" stroke="#AC50C6" stroke-width="1.5" stroke-linecap="round" stroke-linejoin="round"/>
<path d="M16 5.33341V2.66675" stroke="#AC50C6" stroke-width="1.5" stroke-linecap="round" stroke-linejoin="round"/>
<path d="M21.3333 5.33341V2.66675" stroke="#AC50C6" stroke-width="1.5" stroke-linecap="round" stroke-linejoin="round"/>
<path d="M26.6667 10.6667H29.3333" stroke="#AC50C6" stroke-width="1.5" stroke-linecap="round" stroke-linejoin="round"/>
<path d="M10.68 26.6667V29.3334" stroke="#AC50C6" stroke-width="1.5" stroke-linecap="round" stroke-linejoin="round"/>
<path d="M2.66666 10.6667H5.33332" stroke="#AC50C6" stroke-width="1.5" stroke-linecap="round" stroke-linejoin="round"/>
<path d="M2.66666 16H5.33332" stroke="#AC50C6" stroke-width="1.5" stroke-linecap="round" stroke-linejoin="round"/>
<path d="M2.66666 21.3333H5.33332" stroke="#AC50C6" stroke-width="1.5" stroke-linecap="round" stroke-linejoin="round"/>
<path d="M22.28 24.7866C23.4508 24.7866 24.4 23.8375 24.4 22.6666C24.4 21.4958 23.4508 20.5466 22.28 20.5466C21.1092 20.5466 20.16 21.4958 20.16 22.6666C20.16 23.8375 21.1092 24.7866 22.28 24.7866Z" stroke="#AC50C6" stroke-width="1.5" stroke-miterlimit="10" stroke-linecap="round" stroke-linejoin="round"/>
<path d="M15.2134 23.28V22.04C15.2134 21.3067 15.8134 20.7067 16.5467 20.7067C17.8267 20.7067 18.3467 19.8 17.7067 18.6934C17.3334 18.0534 17.56 17.2267 18.2 16.8667L19.4134 16.16C19.9734 15.8267 20.6934 16.0267 21.0267 16.5867L21.1067 16.72C21.7467 17.8267 22.7867 17.8267 23.4267 16.72L23.5067 16.5867C23.84 16.0267 24.56 15.84 25.12 16.16L26.3334 16.8667C26.9734 17.24 27.2 18.0534 26.8267 18.6934C26.1867 19.8 26.7067 20.7067 27.9867 20.7067C28.72 20.7067 29.32 21.3067 29.32 22.04V23.28C29.32 24.0134 28.72 24.6134 27.9867 24.6134C26.7067 24.6134 26.1867 25.52 26.8267 26.6267C27.2 27.2667 26.9734 28.0934 26.3334 28.4534L25.12 29.16C24.56 29.4934 23.84 29.2934 23.5067 28.7334L23.4267 28.6C22.7867 27.4934 21.7467 27.4934 21.1067 28.6L21.0267 28.7334C20.6934 29.2934 19.9734 29.48 19.4134 29.16L18.2 28.4534C17.56 28.08 17.3334 27.2667 17.7067 26.6267C18.3467 25.52 17.8267 24.6134 16.5467 24.6134C15.8134 24.6267 15.2134 24.0267 15.2134 23.28Z" stroke="#AC50C6" stroke-width="1.5" stroke-miterlimit="10" stroke-linecap="round" stroke-linejoin="round"/>
</svg>
