<svg width="20" height="20" viewBox="0 0 20 20" fill="none" xmlns="http://www.w3.org/2000/svg">
<path d="M8 16.6666H12C15.3333 16.6666 16.6667 15.3333 16.6667 11.9999V7.99992C16.6667 4.66659 15.3333 3.33325 12 3.33325H8C4.66666 3.33325 3.33333 4.66659 3.33333 7.99992V11.9999C3.33333 15.3333 4.66666 16.6666 8 16.6666Z" stroke="white" stroke-width="1.5" stroke-linecap="round" stroke-linejoin="round"/>
<path d="M8.74999 14.1667H11.25C13.3333 14.1667 14.1667 13.3334 14.1667 11.25V8.75004C14.1667 6.66671 13.3333 5.83337 11.25 5.83337H8.74999C6.66666 5.83337 5.83333 6.66671 5.83333 8.75004V11.25C5.83333 13.3334 6.66666 14.1667 8.74999 14.1667Z" stroke="white" stroke-width="1.5" stroke-linecap="round" stroke-linejoin="round"/>
<path d="M6.675 3.33341V1.66675" stroke="white" stroke-width="1.5" stroke-linecap="round" stroke-linejoin="round"/>
<path d="M10 3.33341V1.66675" stroke="white" stroke-width="1.5" stroke-linecap="round" stroke-linejoin="round"/>
<path d="M13.3333 3.33341V1.66675" stroke="white" stroke-width="1.5" stroke-linecap="round" stroke-linejoin="round"/>
<path d="M16.6667 6.66663H18.3333" stroke="white" stroke-width="1.5" stroke-linecap="round" stroke-linejoin="round"/>
<path d="M16.6667 10H18.3333" stroke="white" stroke-width="1.5" stroke-linecap="round" stroke-linejoin="round"/>
<path d="M16.6667 13.3334H18.3333" stroke="white" stroke-width="1.5" stroke-linecap="round" stroke-linejoin="round"/>
<path d="M13.3333 16.6666V18.3333" stroke="white" stroke-width="1.5" stroke-linecap="round" stroke-linejoin="round"/>
<path d="M10.0083 16.6666V18.3333" stroke="white" stroke-width="1.5" stroke-linecap="round" stroke-linejoin="round"/>
<path d="M6.675 16.6666V18.3333" stroke="white" stroke-width="1.5" stroke-linecap="round" stroke-linejoin="round"/>
<path d="M1.66667 6.66663H3.33334" stroke="white" stroke-width="1.5" stroke-linecap="round" stroke-linejoin="round"/>
<path d="M1.66667 10H3.33334" stroke="white" stroke-width="1.5" stroke-linecap="round" stroke-linejoin="round"/>
<path d="M1.66667 13.3334H3.33334" stroke="white" stroke-width="1.5" stroke-linecap="round" stroke-linejoin="round"/>
</svg>
