<svg width="20" height="20" viewBox="0 0 20 20" fill="none" xmlns="http://www.w3.org/2000/svg">
<path d="M10 7.50008V1.66675L8.33334 3.33341" stroke="white" stroke-width="1.5" stroke-linecap="round" stroke-linejoin="round"/>
<path d="M10 1.66675L11.6667 3.33341" stroke="white" stroke-width="1.5" stroke-linecap="round" stroke-linejoin="round"/>
<path d="M1.64999 10.8333H5.32499C5.64166 10.8333 5.92499 11.0083 6.06666 11.2916L7.04166 13.2416C7.32499 13.8083 7.89999 14.1666 8.53333 14.1666H11.475C12.1083 14.1666 12.6833 13.8083 12.9667 13.2416L13.9417 11.2916C14.0833 11.0083 14.375 10.8333 14.6833 10.8333H18.3167" stroke="white" stroke-width="1.5" stroke-linecap="round" stroke-linejoin="round"/>
<path d="M5.83332 4.2749C2.88332 4.70824 1.66666 6.44157 1.66666 9.9999V12.4999C1.66666 16.6666 3.33332 18.3332 7.49999 18.3332H12.5C16.6667 18.3332 18.3333 16.6666 18.3333 12.4999V9.9999C18.3333 6.44157 17.1167 4.70824 14.1667 4.2749" stroke="white" stroke-width="1.5" stroke-linecap="round" stroke-linejoin="round"/>
</svg>
