<svg width="28" height="28" viewBox="0 0 28 28" fill="none" xmlns="http://www.w3.org/2000/svg">
<path d="M7 7.29175V9.62508" stroke="#67BFF0" stroke-width="1.5" stroke-linecap="round" stroke-linejoin="round"/>
<path d="M25.6667 13.9999V10.4999C25.6667 4.66659 23.3333 2.33325 17.5 2.33325H10.5C4.66668 2.33325 2.33334 4.66659 2.33334 10.4999V17.4999C2.33334 23.3333 4.66668 25.6666 10.5 25.6666H14" stroke="#67BFF0" stroke-width="1.5" stroke-linecap="round" stroke-linejoin="round"/>
<path d="M11.6667 7.29175V9.62508" stroke="#67BFF0" stroke-width="1.5" stroke-linecap="round" stroke-linejoin="round"/>
<path d="M7 18.6667V21.0001" stroke="#67BFF0" stroke-width="1.5" stroke-linecap="round" stroke-linejoin="round"/>
<path d="M11.6667 18.6667V21.0001" stroke="#67BFF0" stroke-width="1.5" stroke-linecap="round" stroke-linejoin="round"/>
<path d="M16.3333 8.45825H21" stroke="#67BFF0" stroke-width="1.5" stroke-linecap="round" stroke-linejoin="round"/>
<path d="M2.33334 14H25.6667" stroke="#67BFF0" stroke-width="1.5" stroke-linecap="round" stroke-linejoin="round"/>
<path d="M25.1533 23.7184C24.5 24.8501 23.275 25.6084 21.875 25.6084C19.7866 25.6084 18.5033 23.5084 18.5033 23.5084M18.585 19.9384C19.2383 18.7951 20.4633 18.0368 21.875 18.0368C24.4066 18.0368 25.6666 20.1367 25.6666 20.1367M25.6666 17.7917V20.1251H23.3333M20.8366 23.4967H18.5033V25.6667" stroke="#67BFF0" stroke-width="1.5" stroke-linecap="round" stroke-linejoin="round"/>
</svg>
