<?xml version="1.0" standalone="no"?>
<!DOCTYPE svg PUBLIC "-//W3C//DTD SVG 20010904//EN"
 "http://www.w3.org/TR/2001/REC-SVG-20010904/DTD/svg10.dtd">
<svg version="1.0" xmlns="http://www.w3.org/2000/svg"
 width="48.000000pt" height="48.000000pt" viewBox="0 0 48.000000 48.000000"
 preserveAspectRatio="xMidYMid meet">

<g transform="translate(0.000000,48.000000) scale(0.100000,-0.100000)"
fill="#000000" stroke="none">
<path d="M370 435 c-12 -14 -9 -21 18 -47 26 -27 33 -30 47 -18 10 8 15 25 13
44 -3 27 -7 31 -34 34 -19 2 -36 -3 -44 -13z"/>
<path d="M44 389 c-17 -19 -19 -38 -19 -170 0 -201 -7 -194 195 -194 192 0
193 0 198 142 2 58 -1 104 -8 113 -19 28 -30 -11 -30 -113 0 -95 -1 -98 -26
-107 -33 -13 -235 -13 -269 0 l-26 10 3 152 3 153 90 2 c102 3 135 9 135 23 0
6 -46 10 -113 10 -103 0 -116 -2 -133 -21z"/>
<path d="M258 322 c-60 -62 -92 -122 -74 -139 17 -17 86 21 146 81 l64 66 -29
30 c-16 16 -32 30 -35 30 -4 0 -36 -30 -72 -68z"/>
</g>
</svg>
