<?xml version="1.0" standalone="no"?>
<!DOCTYPE svg PUBLIC "-//W3C//DTD SVG 20010904//EN"
 "http://www.w3.org/TR/2001/REC-SVG-20010904/DTD/svg10.dtd">
<svg version="1.0" xmlns="http://www.w3.org/2000/svg"
 width="48.000000pt" height="48.000000pt" viewBox="0 0 48.000000 48.000000"
 preserveAspectRatio="xMidYMid meet">

<g transform="translate(0.000000,48.000000) scale(0.100000,-0.100000)"
fill="#770AA6" stroke="none">
<path d="M42 438 c-17 -17 -17 -379 0 -396 17 -17 379 -17 396 0 14 14 16 128
2 128 -5 0 -10 -20 -10 -44 0 -73 -7 -76 -194 -76 -113 0 -166 4 -174 12 -17
17 -17 339 0 356 8 8 45 12 100 12 52 0 88 4 88 10 0 15 -193 13 -208 -2z"/>
<path d="M247 332 l-108 -108 -6 -59 -6 -58 58 6 59 6 108 108 c120 119 127
136 79 184 -48 48 -65 41 -184 -79z m165 61 c10 -9 18 -23 18 -32 0 -9 -43
-59 -95 -111 l-95 -95 -32 33 -33 32 95 95 c52 52 101 95 109 95 8 0 23 -7 33
-17z m-224 -225 c18 -18 15 -28 -8 -28 -13 0 -20 7 -20 20 0 23 10 26 28 8z"/>
</g>
</svg>
