<svg width="16" height="17" viewBox="0 0 16 17" fill="none" xmlns="http://www.w3.org/2000/svg">
<path d="M1.64679 8.82674V7.67342C1.64679 6.29342 2.75992 5.16675 4.12334 5.16675H11.6848C13.0482 5.16675 14.1613 6.29342 14.1613 7.67342V8.63342H12.8308C12.462 8.63342 12.126 8.78007 11.8823 9.03341C11.6057 9.30674 11.4476 9.70008 11.4872 10.1201C11.5464 10.8401 12.1985 11.3667 12.9099 11.3667H14.1613V12.1601C14.1613 13.5401 13.0482 14.6667 11.6848 14.6667H8.07529" stroke="#67BFF0" stroke-width="1.5" stroke-linecap="round" stroke-linejoin="round"/>
<path d="M1.64679 8.27337V5.22674C1.64679 4.4334 2.12761 3.72671 2.85872 3.44671L8.08847 1.44671C8.90521 1.13337 9.78123 1.74673 9.78123 2.63339V5.16672" stroke="#67BFF0" stroke-width="1.5" stroke-linecap="round" stroke-linejoin="round"/>
<path d="M14.8585 9.31352V10.6869C14.8585 11.0536 14.5687 11.3535 14.1998 11.3669H12.9089C12.1975 11.3669 11.5455 10.8402 11.4862 10.1202C11.4467 9.7002 11.6047 9.30686 11.8814 9.03353C12.1251 8.7802 12.461 8.63354 12.8298 8.63354H14.1998C14.5687 8.64688 14.8585 8.94685 14.8585 9.31352Z" stroke="#67BFF0" stroke-width="1.5" stroke-linecap="round" stroke-linejoin="round"/>
<path d="M4.61066 8H9.22127" stroke="#67BFF0" stroke-width="1.5" stroke-linecap="round" stroke-linejoin="round"/>
<path d="M1.97589 11H5.49313C5.91467 11 6.25717 11.3466 6.25717 11.7733V12.6267" stroke="#67BFF0" stroke-width="1.5" stroke-miterlimit="10" stroke-linecap="round" stroke-linejoin="round"/>
<path d="M2.77958 10.1868L1.97601 11.0001L2.77958 11.8134" stroke="#67BFF0" stroke-width="1.5" stroke-miterlimit="10" stroke-linecap="round" stroke-linejoin="round"/>
<path d="M6.25717 14.52H2.73994C2.3184 14.52 1.97589 14.1733 1.97589 13.7466V12.8933" stroke="#67BFF0" stroke-width="1.5" stroke-miterlimit="10" stroke-linecap="round" stroke-linejoin="round"/>
<path d="M5.45453 15.3337L6.25809 14.5204L5.45453 13.707" stroke="#67BFF0" stroke-width="1.5" stroke-miterlimit="10" stroke-linecap="round" stroke-linejoin="round"/>
</svg>
