<svg width="14" height="14" viewBox="0 0 14 14" fill="none" xmlns="http://www.w3.org/2000/svg">
<path d="M10.5 5.83341V4.66675C10.5 2.73591 9.91667 1.16675 7 1.16675C4.08333 1.16675 3.5 2.73591 3.5 4.66675V5.83341" stroke="white" stroke-width="1.5" stroke-linecap="round" stroke-linejoin="round"/>
<path d="M6.99992 10.7917C6.1945 10.7917 5.54158 10.1387 5.54158 9.33333C5.54158 8.52792 6.1945 7.875 6.99992 7.875C7.80533 7.875 8.45825 8.52792 8.45825 9.33333C8.45825 10.1387 7.80533 10.7917 6.99992 10.7917Z" stroke="white" stroke-width="1.5" stroke-linecap="round" stroke-linejoin="round"/>
<path d="M4.08325 12.8333H9.91659C12.2499 12.8333 12.8333 12.2499 12.8333 9.91659V8.74992C12.8333 6.41659 12.2499 5.83325 9.91659 5.83325H4.08325C1.74992 5.83325 1.16658 6.41659 1.16658 8.74992V9.91659C1.16658 12.2499 1.74992 12.8333 4.08325 12.8333Z" stroke="white" stroke-width="1.5" stroke-linecap="round" stroke-linejoin="round"/>
</svg>
