<svg width="19" height="19" viewBox="0 0 19 19" fill="none" xmlns="http://www.w3.org/2000/svg">
<path d="M17.4167 6.547V3.34867C17.4167 2.08992 16.91 1.58325 15.6513 1.58325H12.4529C11.1942 1.58325 10.6875 2.08992 10.6875 3.34867V6.547C10.6875 7.80575 11.1942 8.31242 12.4529 8.31242H15.6513C16.91 8.31242 17.4167 7.80575 17.4167 6.547Z" stroke="white" stroke-width="1.5" stroke-linecap="round" stroke-linejoin="round"/>
<path d="M8.31254 6.74492V3.15075C8.31254 2.0345 7.80587 1.58325 6.54712 1.58325H3.34879C2.09004 1.58325 1.58337 2.0345 1.58337 3.15075V6.737C1.58337 7.86117 2.09004 8.3045 3.34879 8.3045H6.54712C7.80587 8.31242 8.31254 7.86117 8.31254 6.74492Z" stroke="white" stroke-width="1.5" stroke-linecap="round" stroke-linejoin="round"/>
<path d="M8.31254 15.6513V12.4529C8.31254 11.1942 7.80587 10.6875 6.54712 10.6875H3.34879C2.09004 10.6875 1.58337 11.1942 1.58337 12.4529V15.6513C1.58337 16.91 2.09004 17.4167 3.34879 17.4167H6.54712C7.80587 17.4167 8.31254 16.91 8.31254 15.6513Z" stroke="white" stroke-width="1.5" stroke-linecap="round" stroke-linejoin="round"/>
<path d="M11.875 12.2708H16.625" stroke="white" stroke-width="1.5" stroke-linecap="round"/>
<path d="M11.875 15.4375H16.625" stroke="white" stroke-width="1.5" stroke-linecap="round"/>
</svg>
