<svg width="19" height="19" viewBox="0 0 19 19" fill="none" xmlns="http://www.w3.org/2000/svg">
<path d="M9.5 5.09839V7.73464" stroke="white" stroke-width="1.5" stroke-miterlimit="10" stroke-linecap="round"/>
<path d="M9.51587 1.58325C6.60254 1.58325 4.24337 3.94242 4.24337 6.85575V8.51825C4.24337 9.05659 4.02171 9.86408 3.74462 10.3233L2.73921 12.0016C2.12171 13.0387 2.54921 14.1945 3.68921 14.5745C7.47337 15.8333 11.5663 15.8333 15.3505 14.5745C16.4192 14.2183 16.8784 12.9674 16.3005 12.0016L15.295 10.3233C15.018 9.86408 14.7963 9.04867 14.7963 8.51825V6.85575C14.7884 3.95825 12.4134 1.58325 9.51587 1.58325Z" stroke="white" stroke-width="1.5" stroke-miterlimit="10" stroke-linecap="round"/>
<path d="M12.1362 14.8992C12.1362 16.3479 10.9487 17.5354 9.49996 17.5354C8.77954 17.5354 8.11454 17.2346 7.63954 16.7596C7.16454 16.2846 6.86371 15.6196 6.86371 14.8992" stroke="white" stroke-width="1.5" stroke-miterlimit="10"/>
</svg>
