<svg width="28" height="28" viewBox="0 0 28 28" fill="none" xmlns="http://www.w3.org/2000/svg">
<path d="M14.1867 12.6816C14.0701 12.6699 13.9301 12.6699 13.8017 12.6816C11.0251 12.5883 8.82007 10.3133 8.82007 7.51325C8.82007 4.65492 11.1301 2.33325 14.0001 2.33325C16.8584 2.33325 19.1801 4.65492 19.1801 7.51325C19.1684 10.3133 16.9634 12.5883 14.1867 12.6816Z" stroke="white" stroke-width="1.5" stroke-linecap="round" stroke-linejoin="round"/>
<path d="M8.35334 16.9867C5.53001 18.8767 5.53001 21.9567 8.35334 23.8351C11.5617 25.9817 16.8233 25.9817 20.0317 23.8351C22.855 21.9451 22.855 18.8651 20.0317 16.9867C16.835 14.8517 11.5733 14.8517 8.35334 16.9867Z" stroke="white" stroke-width="1.5" stroke-linecap="round" stroke-linejoin="round"/>
</svg>
