<svg width="20" height="20" viewBox="0 0 20 20" fill="none" xmlns="http://www.w3.org/2000/svg">
<path d="M1.72501 3.8334C2.39167 0.950065 6.73334 0.950065 7.39167 3.8334C7.78334 5.52507 6.70834 6.9584 5.77501 7.85007C5.09167 8.50007 4.01667 8.49173 3.33334 7.85007C2.40834 6.9584 1.33334 5.52507 1.72501 3.8334Z" stroke="white" stroke-width="1.5"/>
<path d="M12.5583 13.8334C13.225 10.9501 17.5917 10.9501 18.2583 13.8334C18.65 15.5251 17.575 16.9584 16.6333 17.8501C15.95 18.5001 14.8667 18.4917 14.1833 17.8501C13.2417 16.9584 12.1667 15.5251 12.5583 13.8334Z" stroke="white" stroke-width="1.5"/>
<path d="M9.99991 4.16675H12.2332C13.7749 4.16675 14.4916 6.07508 13.3332 7.09175L6.67491 12.9167C5.51658 13.9251 6.23325 15.8334 7.76658 15.8334H9.99991" stroke="white" stroke-width="1.5" stroke-linecap="round" stroke-linejoin="round"/>
<path d="M4.57185 4.58341H4.58148" stroke="white" stroke-width="2" stroke-linecap="round" stroke-linejoin="round"/>
<path d="M15.4052 14.5834H15.4148" stroke="white" stroke-width="2" stroke-linecap="round" stroke-linejoin="round"/>
</svg>
