<svg width="17" height="17" viewBox="0 0 17 17" fill="none" xmlns="http://www.w3.org/2000/svg">
<path d="M11.2294 1.94678H6.45801C4.76561 1.94678 4.39179 2.79983 4.17429 3.8455L3.40625 7.56727H14.2811L13.5131 3.8455C13.2956 2.79983 12.9218 1.94678 11.2294 1.94678Z" stroke="#67BFF0" stroke-width="1.5" stroke-linecap="round" stroke-linejoin="round"/>
<path d="M15.6337 13.635C15.7085 14.4399 15.0696 15.1348 14.254 15.1348H12.9762C12.2421 15.1348 12.1402 14.8183 12.0111 14.4262L11.8751 14.0134C11.6848 13.4493 11.5625 13.0709 10.5837 13.0709H7.10376C6.12502 13.0709 5.98229 13.4975 5.81237 14.0134L5.67644 14.4262C5.5473 14.8183 5.44535 15.1348 4.71129 15.1348H3.43349C2.61788 15.1348 1.97898 14.4399 2.05374 13.635L2.43436 9.44547C2.52952 8.41355 2.72663 7.56738 4.50739 7.56738H13.1801C14.9609 7.56738 15.158 8.41355 15.2531 9.44547L15.6337 13.635Z" stroke="#67BFF0" stroke-width="1.5" stroke-linecap="round" stroke-linejoin="round"/>
<path d="M3.40643 5.50366H2.72675" stroke="#67BFF0" stroke-width="1.5" stroke-linecap="round" stroke-linejoin="round"/>
<path d="M14.9612 5.50366H14.2815" stroke="#67BFF0" stroke-width="1.5" stroke-linecap="round" stroke-linejoin="round"/>
<path d="M8.84375 2.06372V3.43961" stroke="#67BFF0" stroke-width="1.5" stroke-linecap="round" stroke-linejoin="round"/>
<path d="M7.82422 3.4397H9.86326" stroke="#67BFF0" stroke-width="1.5" stroke-linecap="round" stroke-linejoin="round"/>
<path d="M4.76587 10.3191H6.80491" stroke="#67BFF0" stroke-width="1.5" stroke-linecap="round" stroke-linejoin="round"/>
<path d="M10.8828 10.3191H12.9219" stroke="#67BFF0" stroke-width="1.5" stroke-linecap="round" stroke-linejoin="round"/>
</svg>
