<svg width="16" height="16" viewBox="0 0 16 16" fill="none" xmlns="http://www.w3.org/2000/svg">
<path d="M7.34669 13H5.00002C4.58669 13 4.22002 12.9867 3.89335 12.94C2.14002 12.7467 1.66669 11.92 1.66669 9.66667V6.33333C1.66669 4.08 2.14002 3.25333 3.89335 3.06C4.22002 3.01333 4.58669 3 5.00002 3H7.30669" stroke="#67BFF0" stroke-width="1.5" stroke-linecap="round" stroke-linejoin="round"/>
<path d="M10.0134 3H11C11.4134 3 11.78 3.01333 12.1067 3.06C13.86 3.25333 14.3334 4.08 14.3334 6.33333V9.66667C14.3334 11.92 13.86 12.7467 12.1067 12.94C11.78 12.9867 11.4134 13 11 13H10.0134" stroke="#67BFF0" stroke-width="1.5" stroke-linecap="round" stroke-linejoin="round"/>
<path d="M10 1.33337V14.6667" stroke="#67BFF0" stroke-width="1.5" stroke-linecap="round" stroke-linejoin="round"/>
<path d="M5.33331 5.66663V10.3333" stroke="#67BFF0" stroke-width="1.5" stroke-linecap="round" stroke-linejoin="round"/>
</svg>
