<svg width="20" height="20" viewBox="0 0 20 20" fill="none" xmlns="http://www.w3.org/2000/svg">
<path d="M14.1667 18.3333H5.83335C2.50002 18.3333 1.66669 17.5 1.66669 14.1667V12.5C1.66669 9.16667 2.50002 8.33334 5.83335 8.33334H14.1667C17.5 8.33334 18.3334 9.16667 18.3334 12.5V14.1667C18.3334 17.5 17.5 18.3333 14.1667 18.3333Z" stroke="#770AA6" stroke-width="1.5" stroke-linecap="round" stroke-linejoin="round"/>
<path d="M5 8.33333V6.66666C5 3.90833 5.83333 1.66666 10 1.66666C13.75 1.66666 15 3.33333 15 5.83333" stroke="#770AA6" stroke-width="1.5" stroke-linecap="round" stroke-linejoin="round"/>
<path d="M10 15.4167C11.1506 15.4167 12.0834 14.4839 12.0834 13.3333C12.0834 12.1827 11.1506 11.25 10 11.25C8.84943 11.25 7.91669 12.1827 7.91669 13.3333C7.91669 14.4839 8.84943 15.4167 10 15.4167Z" stroke="#770AA6" stroke-width="1.5" stroke-linecap="round" stroke-linejoin="round"/>
</svg>
